<svg xmlns="http://www.w3.org/2000/svg" width="1000" height="40" viewBox="0 0 1000 40"><defs><filter id="gl" x="-40%" y="-40%" width="180%" height="180%"><feGaussianBlur stdDeviation="3" result="b"/><feMerge><feMergeNode in="b"/><feMergeNode in="SourceGraphic"/></feMerge></filter><filter id="gl2" x="-50%" y="-50%" width="200%" height="200%"><feGaussianBlur stdDeviation="7" result="b"/><feMerge><feMergeNode in="b"/><feMergeNode in="SourceGraphic"/></feMerge></filter><linearGradient id="bd" gradientUnits="userSpaceOnUse" x1="0" y1="0" x2="1000" y2="0" spreadMethod="reflect"><stop offset="0" stop-color="#00ff9c"/><stop offset=".5" stop-color="#00e5ff"/><stop offset="1" stop-color="#b967ff"/><animateTransform attributeName="gradientTransform" type="translate" from="0 0" to="1000 0" dur="6s" repeatCount="indefinite"/></linearGradient><clipPath id="rc"><rect width="1000" height="40" rx="18"/></clipPath></defs><style>.bl{animation:bl 1s steps(1) infinite}@keyframes bl{50%{opacity:0}}</style><path d="M0 20 L300 20 L330 20 L345 6 L360 34 L375 20 L400 20 L430 20 L445 10 L460 30 L475 20 L1000 20" fill="none" stroke="#16202c" stroke-width="2"/><path d="M0 20 L300 20 L330 20 L345 6 L360 34 L375 20 L400 20 L430 20 L445 10 L460 30 L475 20 L1000 20" pathLength="1" fill="none" stroke="url(#bd)" stroke-width="2.5" stroke-dasharray=".18 1" filter="url(#gl)"><animate attributeName="stroke-dashoffset" from="1.18" to="-.18" dur="3.2s" repeatCount="indefinite"/></path></svg>